{"title":"Gods Of Egypt 2016 BluRay 1080p x264 Dual Audio [English - Hindi","uid":14668543,"size":3212416887,"categoryP":"video","categoryS":"hd___movies","magnet":"?xt=urn:btih:e4a86fdcbc9316064a71acbcc7cbb05e715de35e&amp;dn=Gods+Of+Egypt+2016+BluRay+1080p+x264+Dual+Audio+%5BEnglish+-+Hindi&amp;tr=udp%3A%2F%2Ftracker.leechers-paradise.org%3A6969&amp;tr=udp%3A%2F%2Fzer0day.ch%3A1337&amp;tr=udp%3A%2F%2Fopen.demonii.com%3A1337&amp;tr=udp%3A%2F%2Ftracker.coppersurfer.tk%3A6969&amp;tr=udp%3A%2F%2Fexodus.desync.com%3A6969","seeders":22,"leechers":8,"uploader":"makintos13","files":3,"time":1463840596,"description":"Gods Of Egypt 2016 BluRay 1080p x264 Dual Audio [English - Hindi(Cleaned)]...Hon3y\r\n\r\nscreens:\r\n \nhttps://imgmak.com/TPf\r\n \nhttps://imgmak.com/TPE\r\n \nhttps://imgmak.com/TPh\r\n \nhttps://imgmak.com/TPl\r\n \nhttps://imgmak.com/TPV\r\n\r\nGeneral\r\nFormat : Matroska\r\nFormat version : Version 4 / Version 2\r\nFile size : 2.99 GiB\r\nDuration : 2h 7mn\r\nOverall bit rate : 3 371 Kbps\r\n\r\nVideo\r\nFormat : AVC\r\nFormat/Info : Advanced Video Codec\r\nFormat profile :   \r\nFormat settings, CABAC : Yes\r\nFormat settings, ReFrames : 5 frames\r\nCodec ID : V_MPEG4/ISO/AVC\r\nDuration : 2h 7mn\r\nBit rate : 2 960 Kbps\r\nWidth : 1 920 pixels\r\nHeight : 800 pixels\r\nDisplay aspect ratio : 2.40:1\r\nFrame rate mode : Constant\r\nFrame rate : 23.976 (24000/1001) fps\r\nColor space : YUV\r\nChroma subsampling : 4:2:0\r\nBit depth : 8 bits\r\nScan type : Progressive\r\nBits/(Pixel*Frame) : 0.080\r\nStream size : 2.62 GiB (88%)\r\nTitle :   \r\n\r\nHindi Audio Credits: KILLERBLAZE\r\n\r\nCleaned and Synched by: R3al_Star\r\n\r\n\r\nAudio 1\r\nFormat/Info : Advanced Audio Codec\r\nFormat profile : LC\r\nCodec ID : A_AAC\r\nDuration : 2h 7mn\r\nBit rate : 192 Kbps\r\nChannel(s) : 2 channels\r\nChannel positions : Front: L R\r\nSampling rate : 48.0 KHz\r\nFrame rate : 46.875 fps (1024 spf)\r\nCompression mode : Lossy\r\nDelay relative to video : 9ms\r\nStream size : 174 MiB (6%)\r\nTitle :   \r\nDefault : Yes\r\n\r\nAudio 2\r\nFormat : AC-3\r\nFormat/Info : Audio Coding 3\r\nMode extension : CM (complete main)\r\nFormat settings, Endianness : Big\r\nCodec ID : A_AC3\r\nDuration : 2h 7mn\r\nBit rate mode : Constant\r\nBit rate : 224 Kbps\r\nChannel(s) : 6 channels\r\nChannel positions : Front: L C R, Side: L R, LFE\r\nSampling rate : 48.0 KHz\r\nFrame rate : 31.250 fps (1536 spf)\r\nCompression mode : Lossy\r\nStream size : 204 MiB (7%)\r\nTitle :   \r\nDefault : No\r\n\r\nSubtitle\r\nFormat : UTF-8\r\nCodec ID : S_TEXT/UTF8\r\nCodec ID/Info : UTF-8 Plain Text\r\nDuration : 1h 55mn\r\nBit rate : 46 bps\r\nCount of elements : 1230\r\nStream size : 39.8 KiB (0%)\r\nTitle :   \r\nDefault : Yes\r\n\r\nChapters Menu\r\n00:00:00.000 : en:00:00:00.000\r\n00:07:08.011 : en:00:07:08.011\r\n00:18:07.545 : en:00:18:07.545\r\n00:23:47.259 : en:00:23:47.259\r\n00:30:11.810 : en:00:30:11.810\r\n00:39:16.521 : en:00:39:16.521\r\n00:46:30.621 : en:00:46:30.621\r\n00:54:46.074 : en:00:54:46.074\r\n01:01:14.129 : en:01:01:14.129\r\n01:09:29.040 : en:01:09:29.040\r\n01:18:03.345 : en:01:18:03.345\r\n01:28:18.251 : en:01:28:18.251\r\n01:36:12.058 : en:01:36:12.058\r\n01:39:14.657 : en:01:39:14.657\r\n01:46:58.328 : en:01:46:58.328\r\n01:52:11.016 : en:01:52:11.016","torrent":{"xt":"urn:btih:e4a86fdcbc9316064a71acbcc7cbb05e715de35e","amp;dn":"Gods+Of+Egypt+2016+BluRay+1080p+x264+Dual+Audio+%5BEnglish+-+Hindi","amp;tr":["udp%3A%2F%2Ftracker.leechers-paradise.org%3A6969","udp%3A%2F%2Fzer0day.ch%3A1337","udp%3A%2F%2Fopen.demonii.com%3A1337","udp%3A%2F%2Ftracker.coppersurfer.tk%3A6969","udp%3A%2F%2Fexodus.desync.com%3A6969"],"infoHash":"e4a86fdcbc9316064a71acbcc7cbb05e715de35e","infoHashBuffer":{"type":"Buffer","data":[228,168,111,220,188,147,22,6,74,113,172,188,199,203,176,94,113,93,227,94]},"announce":[],"urlList":[]}}